<?xml version="1.0" encoding="UTF-8" standalone="no"?>
<!DOCTYPE svg PUBLIC "-//W3C//DTD SVG 1.1//EN"
 "http://www.w3.org/Graphics/SVG/1.1/DTD/svg11.dtd">
<!-- Generated by graphviz version 2.40.1 (20161225.0304)
 -->
<!-- Title: dependencies Pages: 1 -->
<svg width="665pt" height="284pt"
 viewBox="0.00 0.00 665.00 284.00" xmlns="http://www.w3.org/2000/svg" xmlns:xlink="http://www.w3.org/1999/xlink">
<g id="graph0" class="graph" transform="scale(1 1) rotate(0) translate(4 280)">
<title>dependencies</title>
<polygon fill="#ffffff" stroke="transparent" points="-4,4 -4,-280 661,-280 661,4 -4,4"/>
<text text-anchor="start" x="307.5091" y="-42.4" font-family="sans-serif" font-weight="bold" font-size="14.00" fill="#000000">Legend</text>
<polygon fill="#ffffb3" stroke="transparent" points="94.5,-10 94.5,-30 114.5,-30 114.5,-10 94.5,-10"/>
<text text-anchor="start" x="118.129" y="-15.4" font-family="sans-serif" font-size="14.00" fill="#000000"> &#160;Declarations</text>
<polygon fill="#8dd3c7" stroke="transparent" points="207.5,-10 207.5,-30 227.5,-30 227.5,-10 207.5,-10"/>
<text text-anchor="start" x="231.2251" y="-15.4" font-family="sans-serif" font-size="14.00" fill="#000000"> &#160;Module</text>
<polygon fill="#80b1d3" stroke="transparent" points="293.5,-10 293.5,-30 313.5,-30 313.5,-10 293.5,-10"/>
<text text-anchor="start" x="317.2812" y="-15.4" font-family="sans-serif" font-size="14.00" fill="#000000"> &#160;Bootstrap</text>
<polygon fill="#fdb462" stroke="transparent" points="390.5,-10 390.5,-30 410.5,-30 410.5,-10 390.5,-10"/>
<text text-anchor="start" x="414.1732" y="-15.4" font-family="sans-serif" font-size="14.00" fill="#000000"> &#160;Providers</text>
<polygon fill="#fb8072" stroke="transparent" points="486.5,-10 486.5,-30 506.5,-30 506.5,-10 486.5,-10"/>
<text text-anchor="start" x="510.2258" y="-15.4" font-family="sans-serif" font-size="14.00" fill="#000000"> &#160;Exports</text>
<g id="clust1" class="cluster">
<title>cluster_AppModule</title>
<polygon fill="none" stroke="#000000" stroke-dasharray="1,5" points="8,-70 8,-268 649,-268 649,-70 8,-70"/>
</g>
<g id="clust3" class="cluster">
<title>cluster_AppModule_imports</title>
<polygon fill="none" stroke="#000000" points="16,-78 16,-130 641,-130 641,-78 16,-78"/>
</g>
<g id="clust5" class="cluster">
<title>cluster_AppModule_bootstrap</title>
<polygon fill="none" stroke="#000000" points="261,-208 261,-260 385,-260 385,-208 261,-208"/>
</g>
<!-- BrowserModule -->
<g id="node1" class="node">
<title>BrowserModule</title>
<polygon fill="#8dd3c7" stroke="#000000" points="633.4734,-122 630.4734,-126 609.4734,-126 606.4734,-122 526.5266,-122 526.5266,-86 633.4734,-86 633.4734,-122"/>
<text text-anchor="middle" x="580" y="-99.8" font-family="Times,serif" font-size="14.00" fill="#000000">BrowserModule</text>
</g>
<!-- AppModule -->
<g id="node6" class="node">
<title>AppModule</title>
<polygon fill="#8dd3c7" stroke="#000000" points="364.6571,-187 361.6571,-191 340.6571,-191 337.6571,-187 281.3429,-187 281.3429,-151 364.6571,-151 364.6571,-187"/>
<text text-anchor="middle" x="323" y="-164.8" font-family="Times,serif" font-size="14.00" fill="#000000">AppModule</text>
</g>
<!-- BrowserModule&#45;&gt;AppModule -->
<g id="edge1" class="edge">
<title>BrowserModule&#45;&gt;AppModule</title>
<path fill="none" stroke="#000000" d="M580,-122.2843C580,-143.3211 580,-175 580,-175 580,-175 374.8635,-175 374.8635,-175"/>
<polygon fill="#000000" stroke="#000000" points="374.8635,-171.5001 364.8635,-175 374.8634,-178.5001 374.8635,-171.5001"/>
</g>
<!-- FormsModule -->
<g id="node2" class="node">
<title>FormsModule</title>
<polygon fill="#8dd3c7" stroke="#000000" points="508.8288,-122 505.8288,-126 484.8288,-126 481.8288,-122 413.1712,-122 413.1712,-86 508.8288,-86 508.8288,-122"/>
<text text-anchor="middle" x="461" y="-99.8" font-family="Times,serif" font-size="14.00" fill="#000000">FormsModule</text>
</g>
<!-- FormsModule&#45;&gt;AppModule -->
<g id="edge2" class="edge">
<title>FormsModule&#45;&gt;AppModule</title>
<path fill="none" stroke="#000000" d="M461,-122.0225C461,-139.3734 461,-163 461,-163 461,-163 374.779,-163 374.779,-163"/>
<polygon fill="#000000" stroke="#000000" points="374.7791,-159.5001 364.779,-163 374.779,-166.5001 374.7791,-159.5001"/>
</g>
<!-- ReactiveFormsModule -->
<g id="node3" class="node">
<title>ReactiveFormsModule</title>
<polygon fill="#8dd3c7" stroke="#000000" points="395.3047,-122 392.3047,-126 371.3047,-126 368.3047,-122 250.6953,-122 250.6953,-86 395.3047,-86 395.3047,-122"/>
<text text-anchor="middle" x="323" y="-99.8" font-family="Times,serif" font-size="14.00" fill="#000000">ReactiveFormsModule</text>
</g>
<!-- ReactiveFormsModule&#45;&gt;AppModule -->
<g id="edge3" class="edge">
<title>ReactiveFormsModule&#45;&gt;AppModule</title>
<path fill="none" stroke="#000000" d="M323,-122.1061C323,-122.1061 323,-140.991 323,-140.991"/>
<polygon fill="#000000" stroke="#000000" points="319.5001,-140.9909 323,-150.991 326.5001,-140.991 319.5001,-140.9909"/>
</g>
<!-- HttpModule -->
<g id="node4" class="node">
<title>HttpModule</title>
<polygon fill="#8dd3c7" stroke="#000000" points="233.4387,-122 230.4387,-126 209.4387,-126 206.4387,-122 148.5613,-122 148.5613,-86 233.4387,-86 233.4387,-122"/>
<text text-anchor="middle" x="191" y="-99.8" font-family="Times,serif" font-size="14.00" fill="#000000">HttpModule</text>
</g>
<!-- HttpModule&#45;&gt;AppModule -->
<g id="edge4" class="edge">
<title>HttpModule&#45;&gt;AppModule</title>
<path fill="none" stroke="#000000" d="M191,-122.0225C191,-139.3734 191,-163 191,-163 191,-163 271.2344,-163 271.2344,-163"/>
<polygon fill="#000000" stroke="#000000" points="271.2344,-166.5001 281.2344,-163 271.2343,-159.5001 271.2344,-166.5001"/>
</g>
<!-- MaterialModule -->
<g id="node5" class="node">
<title>MaterialModule</title>
<polygon fill="#8dd3c7" stroke="#000000" points="130.4706,-122 127.4706,-126 106.4706,-126 103.4706,-122 23.5294,-122 23.5294,-86 130.4706,-86 130.4706,-122"/>
<text text-anchor="middle" x="77" y="-99.8" font-family="Times,serif" font-size="14.00" fill="#000000">MaterialModule</text>
</g>
<!-- MaterialModule&#45;&gt;AppModule -->
<g id="edge5" class="edge">
<title>MaterialModule&#45;&gt;AppModule</title>
<path fill="none" stroke="#000000" d="M77,-122.2843C77,-143.3211 77,-175 77,-175 77,-175 271.2695,-175 271.2695,-175"/>
<polygon fill="#000000" stroke="#000000" points="271.2695,-178.5001 281.2695,-175 271.2694,-171.5001 271.2695,-178.5001"/>
</g>
<!-- AppComponent  -->
<g id="node7" class="node">
<title>AppComponent </title>
<polygon fill="#80b1d3" stroke="#000000" points="377.439,-252 268.561,-252 268.561,-216 377.439,-216 377.439,-252"/>
<text text-anchor="middle" x="323" y="-229.8" font-family="Times,serif" font-size="14.00" fill="#000000">AppComponent </text>
</g>
<!-- AppModule&#45;&gt;AppComponent  -->
<g id="edge6" class="edge">
<title>AppModule&#45;&gt;AppComponent </title>
<path fill="none" stroke="#000000" stroke-dasharray="1,5" d="M323,-187.1061C323,-187.1061 323,-205.991 323,-205.991"/>
<polygon fill="#000000" stroke="#000000" points="319.5001,-205.9909 323,-215.991 326.5001,-205.991 319.5001,-205.9909"/>
</g>
</g>
</svg>
